<?xml version="1.0" encoding="utf-8"?>
<!-- Generator: Adobe Illustrator 16.0.0, SVG Export Plug-In . SVG Version: 6.00 Build 0)  -->
<!DOCTYPE svg PUBLIC "-//W3C//DTD SVG 1.1//EN" "http://www.w3.org/Graphics/SVG/1.1/DTD/svg11.dtd">
<svg version="1.1" id="Layer_1" xmlns="http://www.w3.org/2000/svg" xmlns:xlink="http://www.w3.org/1999/xlink" x="0px" y="0px"
	 width="296.239px" height="77.279px" viewBox="4.089 0 296.239 77.279" enable-background="new 4.089 0 296.239 77.279"
	 xml:space="preserve">
<path fill="#F5F6F6" d="M294.328,57.994H44.979c-3.299,0-6-2.699-6-6V15.548c0-3.3,2.701-6,6-6h249.349c3.301,0,6,2.7,6,6v36.446
	C300.328,55.295,297.629,57.994,294.328,57.994"/>
<g>
	<path fill="#5F9AD0" d="M83.093,26.353h5.049v1.936h-7.395V15.68h2.346V26.353z"/>
	<path fill="#5F9AD0" d="M93.007,19.202c0.564,0,1.083,0.09,1.557,0.271c0.474,0.18,0.882,0.442,1.225,0.789
		c0.343,0.346,0.61,0.771,0.802,1.271c0.192,0.503,0.288,1.077,0.288,1.723c0,0.163-0.007,0.299-0.022,0.405
		c-0.014,0.107-0.041,0.192-0.078,0.253c-0.038,0.063-0.089,0.104-0.153,0.131c-0.064,0.027-0.146,0.039-0.244,0.039h-5.528
		c0.064,0.919,0.311,1.593,0.741,2.023c0.43,0.43,1,0.645,1.709,0.645c0.349,0,0.65-0.04,0.903-0.122
		c0.252-0.081,0.474-0.171,0.663-0.27s0.354-0.189,0.497-0.271c0.142-0.081,0.28-0.122,0.414-0.122c0.087,0,0.163,0.019,0.227,0.053
		c0.064,0.035,0.119,0.085,0.166,0.147l0.627,0.785c-0.238,0.279-0.505,0.513-0.802,0.702c-0.296,0.188-0.606,0.34-0.928,0.453
		c-0.323,0.113-0.651,0.192-0.985,0.24c-0.334,0.046-0.659,0.068-0.973,0.068c-0.622,0-1.2-0.104-1.735-0.31s-1-0.513-1.396-0.916
		c-0.395-0.403-0.706-0.903-0.933-1.499s-0.34-1.286-0.34-2.071c0-0.61,0.099-1.185,0.296-1.723c0.198-0.537,0.481-1.005,0.85-1.403
		c0.369-0.397,0.82-0.714,1.352-0.946C91.739,19.318,92.339,19.202,93.007,19.202z M93.051,20.745c-0.627,0-1.119,0.178-1.474,0.532
		c-0.355,0.354-0.581,0.856-0.68,1.509h4.046c0-0.279-0.038-0.542-0.114-0.789c-0.075-0.247-0.191-0.464-0.349-0.649
		c-0.157-0.187-0.354-0.332-0.593-0.439C93.649,20.8,93.371,20.745,93.051,20.745z"/>
	<path fill="#5F9AD0" d="M101.997,31.209V19.342h1.317c0.14,0,0.258,0.032,0.357,0.097c0.099,0.063,0.163,0.163,0.192,0.297
		l0.174,0.828c0.36-0.413,0.774-0.747,1.243-1.003c0.468-0.256,1.016-0.385,1.644-0.385c0.488,0,0.935,0.103,1.338,0.307
		c0.404,0.203,0.753,0.498,1.046,0.885s0.521,0.863,0.68,1.43c0.16,0.567,0.24,1.218,0.24,1.949c0,0.669-0.09,1.288-0.27,1.857
		c-0.18,0.568-0.438,1.063-0.772,1.481c-0.334,0.418-0.738,0.745-1.212,0.98c-0.474,0.234-1.004,0.354-1.591,0.354
		c-0.506,0-0.935-0.077-1.286-0.23c-0.352-0.153-0.667-0.367-0.946-0.642v3.662H101.997z M106.182,20.876
		c-0.448,0-0.83,0.096-1.146,0.284c-0.317,0.188-0.612,0.454-0.885,0.798v4.011c0.244,0.303,0.51,0.514,0.798,0.633
		c0.288,0.118,0.597,0.179,0.929,0.179c0.326,0,0.621-0.062,0.885-0.183c0.264-0.122,0.488-0.31,0.671-0.56s0.324-0.564,0.423-0.945
		s0.148-0.829,0.148-1.348c0-0.522-0.042-0.967-0.126-1.33s-0.205-0.658-0.362-0.885c-0.157-0.228-0.347-0.393-0.571-0.497
		C106.721,20.929,106.467,20.876,106.182,20.876z"/>
	<path fill="#5F9AD0" d="M111.858,28.288v-8.946h1.265c0.221,0,0.375,0.041,0.462,0.122s0.146,0.222,0.174,0.418l0.131,1.082
		c0.32-0.553,0.695-0.987,1.125-1.309c0.43-0.319,0.913-0.479,1.447-0.479c0.442,0,0.808,0.103,1.099,0.307l-0.279,1.612
		c-0.018,0.104-0.055,0.18-0.113,0.223c-0.058,0.044-0.137,0.064-0.235,0.064c-0.087,0-0.207-0.021-0.358-0.061
		c-0.151-0.041-0.352-0.063-0.602-0.063c-0.448,0-0.831,0.124-1.151,0.371c-0.32,0.247-0.59,0.608-0.811,1.085v5.572L111.858,28.288
		L111.858,28.288z"/>
	<path fill="#5F9AD0" d="M125.749,28.288h-0.968c-0.204,0-0.363-0.03-0.479-0.092c-0.117-0.062-0.204-0.186-0.262-0.37l-0.192-0.637
		c-0.227,0.203-0.449,0.382-0.667,0.536c-0.218,0.153-0.443,0.282-0.676,0.388c-0.232,0.104-0.479,0.184-0.741,0.236
		c-0.262,0.052-0.552,0.077-0.872,0.077c-0.378,0-0.727-0.051-1.046-0.152c-0.32-0.103-0.594-0.255-0.824-0.459
		s-0.409-0.458-0.537-0.763c-0.128-0.303-0.191-0.655-0.191-1.059c0-0.338,0.088-0.672,0.266-1.001
		c0.177-0.33,0.472-0.627,0.885-0.893c0.413-0.267,0.962-0.485,1.648-0.661c0.686-0.175,1.538-0.263,2.555-0.263V22.65
		c0-0.604-0.126-1.05-0.379-1.34s-0.621-0.437-1.104-0.437c-0.349,0-0.639,0.041-0.872,0.122c-0.233,0.082-0.435,0.174-0.606,0.275
		c-0.172,0.102-0.33,0.192-0.476,0.273c-0.145,0.081-0.305,0.122-0.479,0.122c-0.146,0-0.271-0.038-0.375-0.112
		c-0.104-0.075-0.189-0.17-0.253-0.279l-0.392-0.688c1.029-0.941,2.27-1.413,3.723-1.413c0.523,0,0.99,0.086,1.399,0.259
		c0.41,0.171,0.757,0.408,1.042,0.715c0.285,0.305,0.501,0.67,0.65,1.094c0.148,0.425,0.222,0.89,0.222,1.396L125.749,28.288
		L125.749,28.288z M121.563,26.945c0.221,0,0.424-0.021,0.61-0.062s0.362-0.1,0.528-0.18s0.325-0.179,0.479-0.296
		c0.154-0.117,0.31-0.257,0.466-0.417v-1.497c-0.627,0-1.152,0.039-1.574,0.118c-0.422,0.079-0.76,0.181-1.016,0.304
		c-0.256,0.123-0.438,0.267-0.545,0.431c-0.107,0.163-0.161,0.343-0.161,0.535c0,0.382,0.112,0.652,0.336,0.816
		C120.911,26.863,121.203,26.945,121.563,26.945z"/>
	<path fill="#5F9AD0" d="M130.806,28.427c-0.773,0-1.369-0.22-1.787-0.657c-0.419-0.439-0.628-1.045-0.628-1.818v-4.996h-0.907
		c-0.117,0-0.217-0.038-0.301-0.113s-0.126-0.188-0.126-0.341v-0.854l1.439-0.235l0.454-2.44c0.023-0.116,0.077-0.206,0.161-0.271
		c0.084-0.063,0.19-0.096,0.318-0.096h1.116v2.815h2.354v1.535h-2.354v4.849c0,0.278,0.07,0.496,0.209,0.653
		c0.14,0.157,0.326,0.235,0.558,0.235c0.134,0,0.246-0.017,0.336-0.048c0.09-0.032,0.168-0.065,0.235-0.102
		c0.067-0.036,0.126-0.067,0.179-0.1c0.052-0.032,0.104-0.049,0.157-0.049c0.064,0,0.116,0.017,0.157,0.049
		c0.041,0.031,0.084,0.079,0.131,0.144l0.645,1.046c-0.314,0.263-0.674,0.46-1.081,0.594
		C131.664,28.36,131.242,28.427,130.806,28.427z"/>
	<path fill="#5F9AD0" d="M137.233,16.734c0,0.187-0.038,0.359-0.113,0.522c-0.076,0.163-0.176,0.306-0.301,0.428
		s-0.271,0.22-0.44,0.292s-0.349,0.108-0.541,0.108c-0.186,0-0.362-0.036-0.527-0.108c-0.166-0.072-0.31-0.17-0.432-0.292
		s-0.22-0.265-0.292-0.428c-0.073-0.163-0.109-0.337-0.109-0.522c0-0.191,0.036-0.372,0.109-0.541
		c0.072-0.168,0.17-0.313,0.292-0.437s0.266-0.22,0.432-0.292c0.166-0.071,0.341-0.108,0.527-0.108c0.192,0,0.372,0.037,0.541,0.108
		c0.168,0.072,0.315,0.17,0.44,0.292s0.226,0.269,0.301,0.437C137.195,16.362,137.233,16.543,137.233,16.734z M136.91,19.342v8.946
		h-2.154v-8.946H136.91z"/>
	<path fill="#5F9AD0" d="M145.63,21.233c-0.064,0.082-0.126,0.146-0.188,0.191c-0.062,0.047-0.15,0.069-0.266,0.069
		c-0.11,0-0.218-0.033-0.322-0.1c-0.105-0.067-0.23-0.144-0.375-0.229c-0.146-0.084-0.318-0.159-0.519-0.227
		c-0.201-0.066-0.449-0.101-0.746-0.101c-0.378,0-0.709,0.068-0.994,0.204c-0.285,0.138-0.521,0.333-0.71,0.589
		c-0.189,0.257-0.33,0.565-0.423,0.93c-0.093,0.362-0.14,0.773-0.14,1.233c0,0.478,0.051,0.9,0.153,1.272s0.249,0.685,0.44,0.938
		c0.192,0.253,0.424,0.444,0.698,0.575c0.274,0.131,0.581,0.196,0.924,0.196c0.343,0,0.621-0.042,0.833-0.126
		s0.391-0.178,0.536-0.279s0.271-0.194,0.379-0.279c0.107-0.084,0.228-0.126,0.362-0.126c0.174,0,0.305,0.066,0.392,0.2l0.619,0.785
		c-0.238,0.279-0.497,0.513-0.776,0.702c-0.279,0.188-0.568,0.34-0.868,0.453c-0.3,0.112-0.609,0.192-0.929,0.24
		c-0.32,0.046-0.636,0.068-0.95,0.068c-0.553,0-1.073-0.104-1.561-0.31c-0.488-0.206-0.914-0.507-1.277-0.902
		c-0.363-0.395-0.651-0.879-0.863-1.452c-0.212-0.571-0.318-1.225-0.318-1.957c0-0.656,0.094-1.267,0.283-1.827
		c0.189-0.56,0.467-1.047,0.833-1.456c0.366-0.409,0.82-0.73,1.36-0.964c0.54-0.232,1.163-0.349,1.866-0.349
		c0.668,0,1.254,0.107,1.757,0.322c0.502,0.216,0.955,0.522,1.356,0.925L145.63,21.233z"/>
	<path fill="#5F9AD0" d="M147.661,28.288V15.33h2.154v4.979c0.349-0.331,0.732-0.6,1.151-0.804c0.419-0.203,0.91-0.305,1.474-0.305
		c0.488,0,0.922,0.083,1.299,0.248c0.38,0.166,0.693,0.398,0.947,0.698c0.252,0.299,0.444,0.657,0.576,1.071
		c0.129,0.416,0.195,0.873,0.195,1.373v5.694h-2.154v-5.694c0-0.546-0.127-0.969-0.379-1.269c-0.253-0.299-0.633-0.449-1.139-0.449
		c-0.371,0-0.721,0.085-1.047,0.253c-0.324,0.169-0.633,0.398-0.923,0.689v6.47h-2.154V28.288z"/>
	<path fill="#5F9AD0" d="M161.273,19.202c0.563,0,1.082,0.09,1.557,0.271c0.473,0.18,0.881,0.442,1.225,0.789
		c0.344,0.346,0.61,0.771,0.803,1.271c0.191,0.503,0.287,1.077,0.287,1.723c0,0.163-0.008,0.299-0.021,0.405
		c-0.015,0.107-0.041,0.192-0.078,0.253c-0.039,0.063-0.09,0.104-0.153,0.131c-0.063,0.027-0.146,0.039-0.244,0.039h-5.527
		c0.064,0.919,0.311,1.593,0.74,2.023c0.432,0.43,1,0.645,1.709,0.645c0.35,0,0.65-0.04,0.904-0.122
		c0.252-0.081,0.473-0.171,0.662-0.27c0.188-0.099,0.354-0.189,0.496-0.271c0.143-0.081,0.28-0.122,0.414-0.122
		c0.087,0,0.163,0.019,0.227,0.053c0.063,0.035,0.119,0.085,0.166,0.147l0.629,0.785c-0.238,0.279-0.506,0.513-0.803,0.702
		c-0.298,0.188-0.605,0.34-0.929,0.453s-0.651,0.192-0.985,0.24c-0.334,0.046-0.658,0.068-0.974,0.068
		c-0.621,0-1.198-0.104-1.733-0.31s-1-0.513-1.396-0.916s-0.706-0.903-0.934-1.499c-0.227-0.596-0.34-1.286-0.34-2.071
		c0-0.61,0.099-1.185,0.297-1.723c0.197-0.537,0.48-1.005,0.851-1.403c0.37-0.397,0.819-0.714,1.353-0.946
		C160.004,19.318,160.604,19.202,161.273,19.202z M161.316,20.745c-0.627,0-1.119,0.178-1.475,0.532
		c-0.355,0.354-0.58,0.856-0.681,1.509h4.047c0-0.279-0.038-0.542-0.112-0.789c-0.076-0.247-0.191-0.464-0.351-0.649
		c-0.156-0.187-0.354-0.332-0.593-0.439C161.915,20.8,161.637,20.745,161.316,20.745z"/>
	<path fill="#5F9AD0" d="M170.262,28.288v-8.946h1.317c0.278,0,0.462,0.132,0.55,0.394l0.146,0.706
		c0.182-0.188,0.371-0.354,0.572-0.506c0.2-0.152,0.411-0.282,0.637-0.394c0.224-0.109,0.463-0.193,0.719-0.253
		c0.256-0.058,0.535-0.087,0.838-0.087c0.488,0,0.921,0.083,1.299,0.248c0.378,0.166,0.693,0.398,0.946,0.698
		c0.253,0.299,0.444,0.657,0.575,1.071c0.131,0.416,0.195,0.873,0.195,1.373v5.694h-2.152v-5.694c0-0.546-0.127-0.969-0.379-1.269
		c-0.254-0.299-0.633-0.449-1.14-0.449c-0.372,0-0.721,0.085-1.047,0.253c-0.325,0.169-0.633,0.398-0.924,0.689v6.47L170.262,28.288
		L170.262,28.288z"/>
	<path fill="#5F9AD0" d="M183.996,19.202c0.668,0,1.273,0.107,1.818,0.322c0.543,0.216,1.006,0.521,1.391,0.916
		c0.384,0.395,0.68,0.878,0.889,1.447c0.211,0.569,0.314,1.205,0.314,1.909c0,0.709-0.104,1.35-0.314,1.918
		c-0.209,0.569-0.505,1.056-0.889,1.456c-0.385,0.401-0.848,0.709-1.391,0.926c-0.545,0.215-1.15,0.321-1.818,0.321
		s-1.275-0.106-1.822-0.321c-0.547-0.217-1.014-0.523-1.398-0.926c-0.387-0.4-0.688-0.887-0.898-1.456
		c-0.211-0.568-0.318-1.209-0.318-1.918c0-0.704,0.106-1.34,0.318-1.909s0.512-1.053,0.898-1.447c0.386-0.396,0.853-0.7,1.398-0.916
		C182.721,19.31,183.328,19.202,183.996,19.202z M183.996,26.762c0.744,0,1.295-0.249,1.652-0.749
		c0.356-0.5,0.535-1.232,0.535-2.198c0-0.965-0.179-1.7-0.535-2.206c-0.357-0.506-0.908-0.758-1.652-0.758
		c-0.756,0-1.314,0.254-1.674,0.763c-0.361,0.509-0.541,1.242-0.541,2.201c0,0.96,0.18,1.689,0.541,2.192
		C182.682,26.51,183.24,26.762,183.996,26.762z"/>
	<path fill="#5F9AD0" d="M190.091,28.288v-8.946h1.317c0.277,0,0.461,0.132,0.549,0.394l0.148,0.706
		c0.18-0.188,0.369-0.354,0.569-0.506c0.201-0.151,0.413-0.282,0.638-0.394c0.225-0.109,0.463-0.193,0.72-0.253
		c0.256-0.058,0.534-0.087,0.837-0.087c0.488,0,0.922,0.083,1.299,0.248c0.379,0.166,0.693,0.398,0.947,0.698
		c0.252,0.299,0.443,0.657,0.574,1.071c0.131,0.416,0.197,0.873,0.197,1.373v5.694h-2.154v-5.694c0-0.546-0.127-0.969-0.379-1.269
		c-0.254-0.299-0.633-0.449-1.14-0.449c-0.371,0-0.721,0.085-1.046,0.253c-0.325,0.169-0.634,0.398-0.925,0.689v6.47L190.091,28.288
		L190.091,28.288z"/>
	<path fill="#5F9AD0" d="M207.854,28.288H205.9l-3.559-8.946h1.787c0.157,0,0.29,0.038,0.396,0.113
		c0.107,0.075,0.183,0.172,0.223,0.288l1.727,4.778c0.101,0.277,0.183,0.552,0.25,0.818c0.065,0.269,0.125,0.535,0.178,0.803
		c0.053-0.268,0.111-0.534,0.18-0.803c0.066-0.268,0.152-0.541,0.257-0.818l1.771-4.778c0.041-0.116,0.113-0.213,0.219-0.288
		s0.229-0.113,0.375-0.113h1.699L207.854,28.288z"/>
	<path fill="#5F9AD0" d="M219.686,28.288h-0.969c-0.203,0-0.363-0.03-0.479-0.092c-0.116-0.062-0.203-0.186-0.262-0.37l-0.191-0.637
		c-0.227,0.203-0.449,0.382-0.667,0.536c-0.218,0.153-0.443,0.282-0.677,0.388c-0.231,0.104-0.479,0.184-0.74,0.236
		c-0.262,0.052-0.553,0.077-0.872,0.077c-0.378,0-0.728-0.051-1.046-0.152c-0.32-0.103-0.596-0.255-0.824-0.459
		s-0.408-0.458-0.536-0.763c-0.128-0.303-0.192-0.655-0.192-1.059c0-0.338,0.09-0.672,0.268-1.001
		c0.177-0.33,0.473-0.627,0.885-0.893c0.412-0.267,0.963-0.485,1.646-0.661c0.688-0.175,1.539-0.263,2.557-0.263V22.65
		c0-0.604-0.127-1.05-0.38-1.34s-0.62-0.437-1.103-0.437c-0.35,0-0.641,0.041-0.873,0.122c-0.231,0.082-0.435,0.174-0.605,0.275
		s-0.33,0.192-0.475,0.273c-0.146,0.081-0.307,0.122-0.479,0.122c-0.146,0-0.271-0.038-0.375-0.112
		c-0.104-0.075-0.188-0.17-0.253-0.279l-0.393-0.688c1.027-0.941,2.27-1.413,3.724-1.413c0.522,0,0.989,0.086,1.399,0.259
		c0.408,0.171,0.756,0.408,1.041,0.715c0.285,0.305,0.502,0.67,0.649,1.094c0.147,0.425,0.224,0.89,0.224,1.396v5.65H219.686z
		 M215.5,26.945c0.221,0,0.424-0.021,0.609-0.062c0.187-0.04,0.361-0.1,0.527-0.18s0.325-0.179,0.479-0.296
		c0.153-0.117,0.31-0.257,0.467-0.417v-1.497c-0.628,0-1.151,0.039-1.574,0.118c-0.422,0.079-0.76,0.181-1.016,0.304
		c-0.257,0.123-0.438,0.267-0.546,0.431c-0.107,0.163-0.16,0.343-0.16,0.535c0,0.382,0.111,0.652,0.335,0.816
		S215.139,26.945,215.5,26.945z"/>
	<path fill="#5F9AD0" d="M221.805,28.288v-8.946h1.316c0.279,0,0.462,0.132,0.549,0.394l0.148,0.706
		c0.181-0.188,0.371-0.354,0.57-0.506c0.2-0.152,0.413-0.282,0.637-0.394c0.225-0.11,0.465-0.193,0.721-0.253
		c0.255-0.058,0.533-0.087,0.837-0.087c0.487,0,0.921,0.083,1.299,0.248c0.378,0.166,0.693,0.398,0.946,0.698
		c0.253,0.299,0.443,0.657,0.574,1.071c0.132,0.416,0.197,0.873,0.197,1.373v5.694h-2.154v-5.694c0-0.546-0.127-0.969-0.379-1.269
		c-0.254-0.299-0.633-0.449-1.139-0.449c-0.371,0-0.721,0.085-1.046,0.253c-0.325,0.169-0.634,0.398-0.925,0.689v6.47
		L221.805,28.288L221.805,28.288z"/>
	<path fill="#5F9AD0" d="M231.719,28.288v-8.946h1.316c0.279,0,0.462,0.132,0.549,0.394l0.148,0.706
		c0.181-0.188,0.371-0.354,0.57-0.506c0.2-0.152,0.413-0.282,0.637-0.394c0.225-0.11,0.465-0.193,0.721-0.253
		c0.255-0.058,0.533-0.087,0.837-0.087c0.487,0,0.921,0.083,1.299,0.248c0.378,0.166,0.692,0.398,0.946,0.698
		c0.253,0.299,0.443,0.657,0.574,1.071c0.131,0.416,0.197,0.873,0.197,1.373v5.694h-2.154v-5.694c0-0.546-0.127-0.969-0.379-1.269
		c-0.254-0.299-0.633-0.449-1.139-0.449c-0.372,0-0.721,0.085-1.046,0.253c-0.326,0.169-0.634,0.398-0.925,0.689v6.47
		L231.719,28.288L231.719,28.288z"/>
	<path fill="#5F9AD0" d="M245.453,19.202c0.668,0,1.273,0.107,1.816,0.322c0.545,0.216,1.008,0.521,1.392,0.916
		s0.681,0.878,0.89,1.447s0.314,1.205,0.314,1.909c0,0.709-0.105,1.35-0.314,1.918c-0.209,0.569-0.506,1.056-0.89,1.456
		c-0.384,0.401-0.847,0.709-1.392,0.926c-0.543,0.215-1.148,0.321-1.816,0.321c-0.669,0-1.276-0.106-1.823-0.321
		c-0.546-0.217-1.013-0.523-1.399-0.926c-0.385-0.401-0.686-0.887-0.896-1.456c-0.213-0.568-0.318-1.209-0.318-1.918
		c0-0.704,0.105-1.34,0.318-1.909c0.212-0.569,0.512-1.053,0.896-1.447c0.387-0.396,0.854-0.7,1.399-0.916
		C244.177,19.31,244.784,19.202,245.453,19.202z M245.453,26.762c0.742,0,1.295-0.249,1.652-0.749
		c0.356-0.5,0.535-1.232,0.535-2.198c0-0.965-0.179-1.7-0.535-2.206c-0.357-0.506-0.91-0.758-1.652-0.758
		c-0.756,0-1.314,0.254-1.676,0.763c-0.36,0.509-0.539,1.242-0.539,2.201c0,0.96,0.18,1.689,0.539,2.192
		C244.139,26.51,244.697,26.762,245.453,26.762z"/>
	<path fill="#5F9AD0" d="M261.641,23.635c0.084,0.201,0.166,0.403,0.248,0.606c0.082-0.209,0.166-0.416,0.254-0.619
		c0.086-0.203,0.18-0.397,0.278-0.584l3.731-6.983c0.047-0.089,0.095-0.157,0.144-0.211c0.05-0.052,0.104-0.09,0.166-0.112
		c0.062-0.023,0.13-0.037,0.205-0.043s0.166-0.009,0.271-0.009h1.771v12.607h-2.065v-8.145c0-0.15,0.004-0.316,0.014-0.497
		c0.008-0.181,0.021-0.363,0.039-0.549l-3.812,7.149c-0.088,0.162-0.2,0.289-0.34,0.379s-0.304,0.135-0.487,0.135h-0.324
		c-0.186,0-0.349-0.045-0.487-0.135c-0.14-0.09-0.253-0.217-0.341-0.379l-3.862-7.177c0.022,0.19,0.039,0.379,0.048,0.563
		c0.01,0.184,0.014,0.354,0.014,0.511v8.145h-2.065V15.68h1.771c0.104,0,0.194,0.003,0.271,0.009
		c0.075,0.006,0.144,0.02,0.205,0.043c0.061,0.022,0.116,0.062,0.17,0.112c0.053,0.054,0.103,0.122,0.147,0.211l3.768,7.002
		C261.464,23.242,261.557,23.436,261.641,23.635z"/>
	<path fill="#5F9AD0" d="M282.336,28.288h-1.813c-0.203,0-0.371-0.051-0.502-0.152c-0.131-0.101-0.226-0.229-0.282-0.38
		l-0.942-2.571h-5.223l-0.942,2.571c-0.046,0.135-0.138,0.257-0.274,0.366c-0.135,0.11-0.303,0.166-0.5,0.166h-1.822l4.952-12.607
		h2.397L282.336,28.288z M274.175,23.527h4.021l-1.534-4.194c-0.07-0.187-0.147-0.405-0.231-0.658s-0.166-0.526-0.248-0.823
		c-0.082,0.297-0.162,0.571-0.24,0.828c-0.077,0.256-0.154,0.479-0.23,0.672L274.175,23.527z"/>
	<path fill="#5F9AD0" d="M286.277,28.288h-2.354V15.68h2.354V28.288z"/>
</g>
<g>
	<path fill="#5F9AD0" d="M83.241,39.161c0,0.188-0.038,0.36-0.113,0.523c-0.076,0.163-0.176,0.305-0.301,0.427
		s-0.271,0.22-0.44,0.292c-0.169,0.073-0.349,0.109-0.541,0.109c-0.186,0-0.362-0.036-0.527-0.109
		c-0.166-0.072-0.31-0.17-0.432-0.292c-0.122-0.122-0.22-0.264-0.292-0.427c-0.073-0.163-0.109-0.337-0.109-0.523
		c0-0.191,0.036-0.372,0.109-0.541c0.072-0.168,0.17-0.313,0.292-0.436c0.122-0.123,0.266-0.221,0.432-0.292
		c0.166-0.072,0.341-0.109,0.527-0.109c0.192,0,0.372,0.037,0.541,0.109c0.168,0.071,0.315,0.17,0.44,0.292s0.226,0.268,0.301,0.436
		C83.203,38.789,83.241,38.969,83.241,39.161z M82.918,41.769v8.945h-2.154v-8.945H82.918z"/>
	<path fill="#5F9AD0" d="M85.351,50.715v-8.945h1.317c0.279,0,0.462,0.131,0.549,0.393l0.148,0.706
		c0.18-0.187,0.371-0.354,0.571-0.506s0.413-0.282,0.637-0.394c0.224-0.109,0.463-0.193,0.719-0.253
		c0.256-0.058,0.535-0.087,0.837-0.087c0.489,0,0.921,0.083,1.299,0.248c0.378,0.166,0.693,0.398,0.946,0.698
		c0.253,0.299,0.445,0.657,0.576,1.072c0.13,0.416,0.196,0.873,0.196,1.373v5.693h-2.154V45.02c0-0.546-0.126-0.97-0.379-1.27
		c-0.253-0.299-0.632-0.449-1.138-0.449c-0.372,0-0.721,0.086-1.046,0.254c-0.326,0.169-0.634,0.397-0.924,0.688v6.47L85.351,50.715
		L85.351,50.715z"/>
	<path fill="#5F9AD0" d="M99.433,50.715H97.48l-3.558-8.945h1.788c0.157,0,0.289,0.038,0.396,0.112
		c0.108,0.075,0.182,0.173,0.223,0.288l1.727,4.778c0.099,0.278,0.182,0.552,0.249,0.819c0.066,0.268,0.126,0.534,0.179,0.802
		c0.052-0.268,0.112-0.534,0.179-0.802c0.067-0.269,0.152-0.541,0.257-0.819l1.77-4.778c0.041-0.115,0.113-0.213,0.218-0.288
		c0.105-0.074,0.229-0.112,0.375-0.112h1.701L99.433,50.715z"/>
	<path fill="#5F9AD0" d="M106.872,39.161c0,0.188-0.038,0.36-0.113,0.523c-0.076,0.163-0.176,0.305-0.301,0.427
		s-0.271,0.22-0.44,0.292c-0.169,0.073-0.349,0.109-0.541,0.109c-0.186,0-0.362-0.036-0.527-0.109
		c-0.166-0.072-0.31-0.17-0.432-0.292s-0.22-0.264-0.292-0.427c-0.073-0.163-0.109-0.337-0.109-0.523
		c0-0.191,0.036-0.372,0.109-0.541c0.072-0.168,0.17-0.313,0.292-0.436s0.266-0.221,0.432-0.292
		c0.166-0.072,0.341-0.109,0.527-0.109c0.192,0,0.372,0.037,0.541,0.109c0.168,0.071,0.315,0.17,0.44,0.292s0.226,0.268,0.301,0.436
		C106.833,38.789,106.872,38.969,106.872,39.161z M106.549,41.769v8.945h-2.154v-8.945H106.549z"/>
	<path fill="#5F9AD0" d="M115.992,50.715h-0.968c-0.204,0-0.363-0.029-0.479-0.092c-0.117-0.061-0.204-0.185-0.262-0.37
		l-0.192-0.637c-0.227,0.203-0.449,0.382-0.667,0.536c-0.218,0.154-0.443,0.283-0.676,0.388c-0.232,0.105-0.479,0.185-0.741,0.236
		c-0.262,0.052-0.552,0.078-0.872,0.078c-0.378,0-0.727-0.052-1.046-0.153c-0.32-0.102-0.594-0.255-0.824-0.459
		s-0.409-0.458-0.537-0.762s-0.191-0.656-0.191-1.06c0-0.338,0.088-0.672,0.266-1.001c0.177-0.33,0.472-0.627,0.885-0.893
		c0.413-0.267,0.962-0.485,1.648-0.661c0.686-0.175,1.538-0.262,2.555-0.262v-0.527c0-0.604-0.126-1.05-0.379-1.34
		c-0.253-0.29-0.621-0.437-1.104-0.437c-0.349,0-0.639,0.041-0.872,0.122c-0.233,0.082-0.435,0.175-0.606,0.275
		c-0.172,0.102-0.33,0.193-0.476,0.274c-0.145,0.08-0.305,0.121-0.479,0.121c-0.146,0-0.271-0.037-0.375-0.112
		s-0.189-0.169-0.253-0.279l-0.392-0.688c1.029-0.942,2.27-1.413,3.723-1.413c0.523,0,0.99,0.086,1.399,0.258
		c0.41,0.171,0.757,0.409,1.042,0.715c0.285,0.305,0.501,0.67,0.65,1.094c0.148,0.425,0.222,0.891,0.222,1.396L115.992,50.715
		L115.992,50.715z M111.807,49.372c0.221,0,0.424-0.021,0.61-0.061s0.362-0.101,0.528-0.181s0.325-0.179,0.479-0.296
		c0.154-0.117,0.31-0.257,0.466-0.417v-1.497c-0.627,0-1.152,0.039-1.574,0.118s-0.76,0.181-1.016,0.304
		c-0.256,0.123-0.438,0.267-0.545,0.431s-0.161,0.343-0.161,0.536c0,0.381,0.112,0.651,0.336,0.815
		C111.154,49.29,111.446,49.372,111.807,49.372z"/>
	<path fill="#5F9AD0" d="M121.049,50.854c-0.773,0-1.369-0.221-1.787-0.658c-0.419-0.439-0.628-1.045-0.628-1.818v-4.996h-0.907
		c-0.117,0-0.217-0.038-0.301-0.112c-0.084-0.076-0.126-0.189-0.126-0.342v-0.854l1.439-0.235l0.454-2.44
		c0.023-0.116,0.077-0.206,0.161-0.271c0.084-0.063,0.19-0.096,0.318-0.096h1.116v2.816h2.354v1.534h-2.354v4.849
		c0,0.278,0.07,0.497,0.209,0.653c0.14,0.157,0.326,0.235,0.558,0.235c0.134,0,0.246-0.016,0.336-0.048
		c0.09-0.032,0.168-0.065,0.235-0.102c0.067-0.035,0.126-0.067,0.179-0.1c0.052-0.032,0.104-0.049,0.157-0.049
		c0.064,0,0.116,0.017,0.157,0.049c0.041,0.031,0.084,0.079,0.131,0.145l0.645,1.046c-0.314,0.262-0.674,0.46-1.081,0.593
		C121.907,50.787,121.485,50.854,121.049,50.854z"/>
	<path fill="#5F9AD0" d="M128.557,41.629c0.564,0,1.083,0.09,1.557,0.271c0.474,0.18,0.882,0.442,1.225,0.789
		c0.343,0.346,0.61,0.771,0.802,1.271c0.192,0.503,0.288,1.077,0.288,1.724c0,0.163-0.007,0.298-0.022,0.404
		c-0.014,0.107-0.041,0.192-0.078,0.253c-0.038,0.063-0.089,0.104-0.153,0.132c-0.064,0.026-0.146,0.039-0.244,0.039h-5.528
		c0.064,0.919,0.311,1.593,0.741,2.022s1,0.646,1.709,0.646c0.349,0,0.65-0.04,0.903-0.122c0.252-0.081,0.474-0.171,0.663-0.271
		c0.189-0.099,0.354-0.188,0.497-0.271c0.142-0.081,0.28-0.122,0.414-0.122c0.087,0,0.163,0.018,0.227,0.052
		c0.064,0.035,0.119,0.085,0.166,0.147l0.627,0.785c-0.238,0.279-0.505,0.514-0.802,0.702c-0.296,0.188-0.606,0.34-0.928,0.453
		c-0.323,0.113-0.651,0.193-0.985,0.24c-0.334,0.046-0.659,0.068-0.973,0.068c-0.622,0-1.2-0.104-1.735-0.31
		c-0.535-0.206-1-0.512-1.396-0.916c-0.395-0.403-0.706-0.903-0.933-1.499s-0.34-1.286-0.34-2.071c0-0.609,0.099-1.185,0.296-1.723
		c0.198-0.537,0.481-1.005,0.85-1.403c0.369-0.397,0.82-0.714,1.352-0.945C127.289,41.745,127.889,41.629,128.557,41.629z
		 M128.601,43.172c-0.627,0-1.119,0.179-1.474,0.532c-0.355,0.354-0.581,0.857-0.68,1.509h4.046c0-0.278-0.038-0.542-0.114-0.789
		c-0.075-0.247-0.191-0.464-0.349-0.649c-0.157-0.187-0.354-0.332-0.593-0.439C129.199,43.227,128.92,43.172,128.601,43.172z"/>
	<path fill="#5F9AD0" d="M144.557,50.715h-0.968c-0.204,0-0.363-0.029-0.479-0.092c-0.117-0.061-0.204-0.185-0.262-0.37
		l-0.192-0.637c-0.227,0.203-0.449,0.382-0.667,0.536c-0.218,0.154-0.443,0.283-0.676,0.388c-0.232,0.105-0.479,0.185-0.741,0.236
		c-0.262,0.052-0.552,0.078-0.872,0.078c-0.378,0-0.727-0.052-1.046-0.153c-0.32-0.102-0.594-0.255-0.824-0.459
		s-0.409-0.458-0.537-0.762s-0.191-0.656-0.191-1.06c0-0.338,0.088-0.672,0.266-1.001c0.177-0.33,0.472-0.627,0.885-0.893
		c0.413-0.267,0.962-0.485,1.648-0.661c0.686-0.175,1.538-0.262,2.555-0.262v-0.527c0-0.604-0.126-1.05-0.379-1.34
		s-0.621-0.437-1.104-0.437c-0.349,0-0.639,0.041-0.872,0.122c-0.233,0.082-0.435,0.175-0.606,0.275
		c-0.172,0.102-0.33,0.193-0.476,0.274c-0.145,0.08-0.305,0.121-0.479,0.121c-0.146,0-0.271-0.037-0.375-0.112
		s-0.189-0.169-0.253-0.279l-0.392-0.688c1.029-0.942,2.27-1.413,3.723-1.413c0.523,0,0.99,0.086,1.399,0.258
		c0.41,0.171,0.757,0.409,1.042,0.715c0.285,0.305,0.501,0.67,0.65,1.094c0.148,0.425,0.222,0.891,0.222,1.396L144.557,50.715
		L144.557,50.715z M140.372,49.372c0.221,0,0.424-0.021,0.61-0.061s0.362-0.101,0.528-0.181s0.325-0.179,0.479-0.296
		c0.154-0.117,0.31-0.257,0.466-0.417v-1.497c-0.627,0-1.152,0.039-1.574,0.118c-0.422,0.079-0.76,0.181-1.016,0.304
		c-0.256,0.123-0.438,0.267-0.545,0.431s-0.161,0.343-0.161,0.536c0,0.381,0.112,0.651,0.336,0.815
		C139.719,49.29,140.011,49.372,140.372,49.372z"/>
	<path fill="#5F9AD0" d="M150.042,50.715v-8.945h1.317c0.277,0,0.461,0.131,0.549,0.393l0.14,0.662
		c0.157-0.174,0.321-0.334,0.493-0.479c0.171-0.146,0.354-0.271,0.549-0.375c0.194-0.104,0.404-0.188,0.627-0.247
		c0.225-0.063,0.471-0.093,0.737-0.093c0.563,0,1.028,0.152,1.392,0.458s0.635,0.71,0.814,1.217c0.14-0.297,0.314-0.552,0.523-0.764
		s0.438-0.385,0.688-0.519s0.517-0.232,0.797-0.297c0.282-0.063,0.565-0.097,0.851-0.097c0.494,0,0.934,0.075,1.317,0.228
		c0.383,0.15,0.705,0.372,0.968,0.663c0.262,0.29,0.461,0.645,0.598,1.063s0.205,0.898,0.205,1.438v5.693h-2.154V45.02
		c0-0.569-0.125-0.998-0.375-1.286c-0.25-0.287-0.615-0.433-1.098-0.433c-0.223,0-0.426,0.038-0.615,0.113
		c-0.189,0.076-0.355,0.186-0.497,0.327c-0.144,0.143-0.255,0.321-0.337,0.536c-0.08,0.216-0.121,0.463-0.121,0.741v5.693h-2.162
		v-5.693c0-0.6-0.121-1.034-0.362-1.309c-0.241-0.273-0.597-0.41-1.067-0.41c-0.309,0-0.598,0.077-0.867,0.231
		s-0.521,0.365-0.756,0.632v6.549h-2.153V50.715z"/>
	<path fill="#5F9AD0" d="M168.424,41.629c0.563,0,1.082,0.09,1.557,0.271c0.474,0.18,0.881,0.442,1.226,0.789
		c0.343,0.346,0.61,0.771,0.803,1.271c0.191,0.503,0.287,1.077,0.287,1.724c0,0.163-0.008,0.298-0.021,0.404
		c-0.016,0.107-0.041,0.192-0.078,0.253c-0.039,0.063-0.09,0.104-0.153,0.132c-0.063,0.026-0.146,0.039-0.244,0.039h-5.528
		c0.064,0.919,0.312,1.593,0.742,2.022c0.43,0.43,1,0.646,1.709,0.646c0.348,0,0.648-0.04,0.902-0.122
		c0.252-0.081,0.473-0.171,0.662-0.271c0.189-0.099,0.354-0.188,0.497-0.271c0.142-0.081,0.28-0.122,0.414-0.122
		c0.087,0,0.163,0.018,0.227,0.052c0.063,0.035,0.119,0.085,0.166,0.147l0.628,0.785c-0.238,0.279-0.506,0.514-0.803,0.702
		s-0.605,0.34-0.928,0.453c-0.323,0.113-0.652,0.193-0.986,0.24c-0.334,0.046-0.658,0.068-0.973,0.068
		c-0.621,0-1.199-0.104-1.734-0.31s-1-0.512-1.396-0.916c-0.396-0.403-0.705-0.903-0.933-1.499c-0.227-0.596-0.34-1.286-0.34-2.071
		c0-0.609,0.099-1.185,0.296-1.723c0.198-0.537,0.48-1.005,0.852-1.403c0.369-0.397,0.818-0.714,1.352-0.945
		C167.154,41.745,167.755,41.629,168.424,41.629z M168.467,43.172c-0.627,0-1.119,0.179-1.474,0.532
		c-0.354,0.354-0.581,0.857-0.681,1.509h4.047c0-0.278-0.039-0.542-0.113-0.789c-0.076-0.247-0.191-0.464-0.35-0.649
		c-0.156-0.187-0.354-0.332-0.592-0.439C169.064,43.227,168.787,43.172,168.467,43.172z"/>
	<path fill="#5F9AD0" d="M180.518,42.658c0,0.15-0.027,0.298-0.084,0.439c-0.055,0.143-0.119,0.264-0.195,0.361l-4.256,5.599h4.412
		v1.656h-6.914v-0.897c0-0.1,0.023-0.216,0.069-0.354c0.048-0.137,0.119-0.267,0.218-0.389l4.291-5.659h-4.326v-1.646h6.785V42.658z
		"/>
	<path fill="#5F9AD0" d="M188.705,42.658c0,0.15-0.027,0.298-0.083,0.439c-0.056,0.143-0.12,0.264-0.196,0.361l-4.255,5.599h4.412
		v1.656h-6.915v-0.897c0-0.1,0.023-0.216,0.07-0.354c0.047-0.137,0.119-0.267,0.218-0.389l4.29-5.659h-4.325v-1.646h6.784V42.658
		L188.705,42.658z"/>
	<path fill="#5F9AD0" d="M194.242,41.629c0.668,0,1.273,0.107,1.816,0.322c0.545,0.216,1.008,0.521,1.393,0.916
		c0.383,0.396,0.68,0.878,0.889,1.447s0.314,1.206,0.314,1.91c0,0.709-0.105,1.349-0.314,1.918
		c-0.209,0.568-0.506,1.055-0.889,1.456c-0.385,0.4-0.848,0.709-1.393,0.925c-0.543,0.215-1.148,0.321-1.816,0.321
		c-0.669,0-1.276-0.106-1.822-0.321c-0.547-0.216-1.014-0.523-1.4-0.925c-0.386-0.402-0.686-0.888-0.897-1.456
		c-0.212-0.569-0.317-1.209-0.317-1.918c0-0.704,0.105-1.341,0.317-1.91c0.213-0.569,0.512-1.052,0.897-1.447
		c0.387-0.395,0.854-0.7,1.4-0.916C192.966,41.736,193.573,41.629,194.242,41.629z M194.242,49.188c0.744,0,1.295-0.249,1.652-0.749
		c0.356-0.5,0.535-1.232,0.535-2.198c0-0.965-0.179-1.7-0.535-2.206c-0.357-0.506-0.908-0.758-1.652-0.758
		c-0.756,0-1.314,0.254-1.676,0.763c-0.36,0.509-0.539,1.242-0.539,2.201c0,0.96,0.18,1.69,0.539,2.193
		C192.927,48.937,193.486,49.188,194.242,49.188z"/>
	<path fill="#5F9AD0" d="M211.777,38.106v1.865h-5.59v3.731h4.717v1.875h-4.717v5.136h-2.362V38.106H211.777z"/>
	<path fill="#5F9AD0" d="M223.426,50.715h-1.813c-0.203,0-0.37-0.051-0.502-0.151c-0.131-0.102-0.226-0.229-0.282-0.38l-0.942-2.572
		h-5.223l-0.941,2.572c-0.047,0.134-0.139,0.256-0.275,0.365c-0.135,0.11-0.303,0.166-0.5,0.166h-1.822l4.952-12.607h2.397
		L223.426,50.715z M215.266,45.954h4.02l-1.534-4.194c-0.069-0.187-0.147-0.404-0.231-0.657s-0.166-0.527-0.248-0.824
		c-0.082,0.297-0.162,0.572-0.239,0.828c-0.078,0.256-0.155,0.479-0.231,0.672L215.266,45.954z"/>
	<path fill="#5F9AD0" d="M227.751,44.228l-4.021-6.121h2.338c0.162,0,0.279,0.021,0.353,0.064c0.073,0.043,0.14,0.114,0.196,0.213
		l2.869,4.632c0.029-0.076,0.061-0.15,0.096-0.224c0.035-0.072,0.075-0.146,0.122-0.223l2.625-4.143
		c0.128-0.215,0.293-0.321,0.497-0.321h2.249l-4.063,6.024l4.178,6.583h-2.346c-0.156,0-0.283-0.041-0.38-0.122
		c-0.096-0.081-0.176-0.175-0.239-0.278l-2.922-4.83c-0.021,0.068-0.049,0.135-0.078,0.194c-0.029,0.063-0.059,0.118-0.086,0.172
		l-2.8,4.464c-0.063,0.1-0.144,0.189-0.235,0.274c-0.094,0.084-0.209,0.126-0.35,0.126h-2.197L227.751,44.228z"/>
	<path fill="#5F9AD0" d="M235.932,49.529c0-0.181,0.032-0.353,0.101-0.515c0.065-0.163,0.159-0.304,0.278-0.42
		c0.119-0.115,0.26-0.209,0.422-0.277c0.164-0.07,0.338-0.105,0.523-0.105c0.18,0,0.352,0.035,0.516,0.105
		c0.162,0.068,0.302,0.162,0.418,0.277c0.115,0.116,0.209,0.257,0.278,0.42c0.07,0.162,0.104,0.334,0.104,0.515
		c0,0.186-0.034,0.358-0.104,0.519c-0.069,0.16-0.163,0.299-0.278,0.414c-0.117,0.116-0.256,0.208-0.418,0.274
		c-0.164,0.066-0.336,0.101-0.516,0.101c-0.188,0-0.359-0.032-0.523-0.101c-0.162-0.066-0.303-0.158-0.422-0.274
		c-0.119-0.115-0.213-0.254-0.278-0.414C235.964,49.888,235.932,49.715,235.932,49.529z"/>
</g>
<g opacity="0.2">
	<g>
		<g>
			<g>
				<defs>
					<rect id="SVGID_1_" x="4.089" y="0" width="72.951" height="77.279"/>
				</defs>
				<clipPath id="SVGID_2_">
					<use xlink:href="#SVGID_1_"  overflow="visible"/>
				</clipPath>
				<g transform="matrix(1 0 0 1 0 0)" clip-path="url(#SVGID_2_)">
				</g>
			</g>
		</g>
	</g>
</g>
<path fill="#DE9919" d="M10.089,4.177h46.866c3.3,0,6,2.7,6,6v46.865c0,3.3-2.7,6-6,6H10.089c-3.3,0-6-2.7-6-6V10.177
	C4.089,6.877,6.789,4.177,10.089,4.177"/>
<path fill="#FFFFFF" d="M29.758,48.018c0-0.514,0.095-1.002,0.286-1.466c0.19-0.464,0.455-0.86,0.795-1.191
	c0.339-0.332,0.74-0.597,1.204-0.795c0.464-0.199,0.961-0.299,1.491-0.299c0.513,0,1.002,0.1,1.466,0.299
	c0.463,0.198,0.861,0.463,1.192,0.795c0.331,0.331,0.596,0.729,0.795,1.191c0.199,0.464,0.298,0.952,0.298,1.466
	c0,0.53-0.099,1.022-0.298,1.479c-0.199,0.457-0.464,0.851-0.795,1.18C35.861,51.009,35.463,51.27,35,51.46
	c-0.464,0.189-0.953,0.286-1.466,0.286c-0.53,0-1.027-0.097-1.491-0.286s-0.865-0.451-1.204-0.783
	c-0.34-0.329-0.605-0.723-0.795-1.18C29.853,49.041,29.758,48.549,29.758,48.018 M36.49,15.475v14.209
	c0,1.508-0.074,2.984-0.224,4.436c-0.148,1.449-0.347,2.985-0.595,4.607h-4.149c-0.249-1.622-0.448-3.158-0.596-4.607
	c-0.149-1.45-0.224-2.928-0.224-4.436V15.475H36.49z"/>
</svg>
