<?xml version="1.0" encoding="utf-8"?>
<!-- Generator: Adobe Illustrator 21.1.0, SVG Export Plug-In . SVG Version: 6.00 Build 0)  -->
<svg version="1.1" id="Layer_1" xmlns="http://www.w3.org/2000/svg" xmlns:xlink="http://www.w3.org/1999/xlink" x="0px" y="0px"
	 viewBox="0 0 50 50" style="enable-background:new 0 0 50 50;" xml:space="preserve">
<style type="text/css">
	.st0{fill:#FFFFFF;}
	.st1{fill:#10485D;}
</style>
<path class="st0" d="M45.4,18.9c0.4,0.4,0.7,1.1,0.7,1.7v8.5c0,5-2.1,9.8-5.9,13.1c-7,6.2-17.8,5.6-24.3-0.9L4.3,29.7
	c-1.6-1.6,0.5-4.2,2.4-3C7,27,7.3,27.2,7.6,27.5l5.6,5.6c0.7,0.7,2,0.8,2.8-0.1c0.3-0.3,0.5-0.9,0.5-1.4l0.1-26.1
	c0-0.5,0.2-1.2,0.6-1.6c0.5-0.5,1.4-0.7,2.1-0.5c0.4,0.1,0.7,0.3,1,0.6C20.7,4.4,21,5,21,5.7v17.4c0,0.5,0.3,1.1,0.7,1.6
	c0.4,0.4,0.9,0.6,1.5,0.5c0.5,0,0.9-0.3,1.2-0.5c0.3-0.3,0.5-0.9,0.6-1.4v-7c0-0.5,0.2-1.2,0.6-1.6c0.5-0.5,1.4-0.7,2.1-0.5
	c0.4,0.1,0.7,0.3,1,0.5c0.4,0.4,0.7,1.1,0.7,1.7v3.9c0,0.5,0.3,1.1,0.7,1.6c0.4,0.4,0.9,0.6,1.5,0.5c0.5,0,0.9-0.3,1.2-0.5
	c0.3-0.3,0.5-0.9,0.6-1.4v-2.8c0-0.5,0.2-1.2,0.6-1.6c0.5-0.5,1.4-0.7,2.1-0.5c0.4,0.1,0.7,0.3,1,0.5c0.4,0.4,0.7,1.1,0.7,1.7v2.6
	c0,0.5,0.3,1.1,0.7,1.6c0.4,0.4,0.9,0.6,1.5,0.5c0.5,0,0.9-0.3,1.2-0.5c0.3-0.3,0.5-0.9,0.6-1.4c0-1.2,1.1-2.3,2.3-2.2
	C44.5,18.3,45.1,18.6,45.4,18.9"/>
<path class="st1" d="M45.4,18.9c0.4,0.4,0.7,1.1,0.7,1.7v8.5c0,5-2.1,9.8-5.9,13.1c-7,6.2-17.8,5.6-24.3-0.9L4.3,29.7
	c-1.6-1.6,0.5-4.2,2.4-3C7,27,7.3,27.2,7.6,27.5l5.6,5.6c0.7,0.7,2,0.8,2.8-0.1c0.3-0.3,0.5-0.9,0.5-1.4l0.1-26.1
	c0-0.5,0.2-1.2,0.6-1.6c0.5-0.5,1.4-0.7,2.1-0.5c0.4,0.1,0.7,0.3,1,0.6C20.7,4.4,21,5,21,5.7v17.4c0,0.5,0.3,1.1,0.7,1.6
	c0.4,0.4,0.9,0.6,1.5,0.5c0.5,0,0.9-0.3,1.2-0.5c0.3-0.3,0.5-0.9,0.6-1.4v-7c0-0.5,0.2-1.2,0.6-1.6c0.5-0.5,1.4-0.7,2.1-0.5
	c0.4,0.1,0.7,0.3,1,0.5c0.4,0.4,0.7,1.1,0.7,1.7v3.9c0,0.5,0.3,1.1,0.7,1.6c0.4,0.4,0.9,0.6,1.5,0.5c0.5,0,0.9-0.3,1.2-0.5
	c0.3-0.3,0.5-0.9,0.6-1.4v-2.8c0-0.5,0.2-1.2,0.6-1.6c0.5-0.5,1.4-0.7,2.1-0.5c0.4,0.1,0.7,0.3,1,0.5c0.4,0.4,0.7,1.1,0.7,1.7v2.6
	c0,0.5,0.3,1.1,0.7,1.6c0.4,0.4,0.9,0.6,1.5,0.5c0.5,0,0.9-0.3,1.2-0.5c0.3-0.3,0.5-0.9,0.6-1.4c0-1.2,1.1-2.3,2.3-2.2
	C44.5,18.3,45.1,18.6,45.4,18.9 M47.8,16.5L47.8,16.5c-1-1-2.3-1.6-3.7-1.6c-1.2-0.1-2.4,0.3-3.3,0.9c-0.3-0.7-0.7-1.6-1.4-2.1
	c-0.7-0.7-1.6-1.2-2.6-1.5c-1.8-0.4-3.5,0-4.9,1.2c-0.3-0.4-0.5-0.7-0.8-1.1c-0.7-0.7-1.6-1.2-2.6-1.5c-1.4-0.3-2.8-0.1-4,0.5V5.7
	c0-1.6-0.6-3-1.7-4.1c-0.7-0.7-1.6-1.2-2.6-1.4c-1.9-0.5-3.9,0.1-5.3,1.5c-1.1,1-1.6,2.4-1.7,3.9v22.6l-3.1-3.1
	c-0.5-0.5-0.9-0.9-1.5-1.2c-2.4-1.5-5.3-1.1-7,1.1S0,30.1,2,32.1l11.6,11.6c8,8,20.7,8.5,29,1.1c4.5-4,7-9.6,7-15.7v-8.5
	C49.6,19.1,48.9,17.7,47.8,16.5L47.8,16.5L47.8,16.5z"/>
</svg>
