<?xml version="1.0" encoding="utf-8"?>
<!-- Generator: Adobe Illustrator 21.1.0, SVG Export Plug-In . SVG Version: 6.00 Build 0)  -->
<svg version="1.1" id="Layer_1" xmlns="http://www.w3.org/2000/svg" xmlns:xlink="http://www.w3.org/1999/xlink" x="0px" y="0px"
	 viewBox="0 0 11.2 11.2" enable-background="new 0 0 11.2 11.2" xml:space="preserve">
<path fill="#FFFFFF" d="M7,5.6l3.9-3.9c0.4-0.4,0.4-1,0-1.4s-1-0.4-1.4,0L5.6,4.2L1.7,0.3c-0.4-0.4-1-0.4-1.4,0s-0.4,1,0,1.4
	l3.9,3.9L0.3,9.5c-0.4,0.4-0.4,1,0,1.4c0.2,0.2,0.5,0.3,0.7,0.3s0.5-0.1,0.7-0.3L5.6,7l3.9,3.9c0.2,0.2,0.5,0.3,0.7,0.3
	s0.5-0.1,0.7-0.3c0.4-0.4,0.4-1,0-1.4L7,5.6z"/>
</svg>
